<?xml version="1.0" encoding="UTF-8"?>
<svg id="Warstwa_1" data-name="Warstwa 1" xmlns="http://www.w3.org/2000/svg" viewBox="0 0 94.96 17.52">
  <defs>
    <style>
      .cls-1 {
        stroke-width: 0px;
      }
    </style>
  </defs>
  <path class="cls-1" d="m17.44.02v17.44l-3.11-2.39L3.11,6.43v11.04H0V.07l3.11,2.39,11.21,8.65V0l3.11.02Z"/>
  <path class="cls-1" d="m23.04,4.71v1.62h11.21v3.11h-11.21v3.29c0,.87.72,1.59,1.59,1.59h12.73v3.11h-12.73c-2.59,0-4.68-2.12-4.68-4.71V4.71c0-2.59,2.09-4.71,4.68-4.71h12.73v3.11h-12.73c-.87,0-1.59.72-1.59,1.59Z"/>
  <path class="cls-1" d="m39.23,17.47h.05l-.05.05v-.05ZM56.73.02l-6.75,8.75,6.73,8.7h-3.94l-4.76-6.16-4.76,6.16h-3.94l6.7-8.7L39.26.02h3.94l4.78,6.2L52.76.02h3.96Zm-.05,17.49l-.03-.05h.03v.05Z"/>
  <path class="cls-1" d="m75.98,0v8.72c0,4.81-3.91,8.72-8.72,8.72s-8.72-3.91-8.72-8.72V0h3.11v8.72c0,3.09,2.52,5.61,5.61,5.61s5.61-2.52,5.61-5.61V0h3.12Z"/>
  <path class="cls-1" d="m91.85,4.83v-.1c0-.87-.72-1.59-1.59-1.59h-7.08c-.87,0-1.59.72-1.59,1.59v.1c0,.87.72,1.59,1.59,1.59h6.28c1.62,0,3.07.7,4.06,1.79.08.08.12.15.2.22.77.95,1.25,2.17,1.25,3.49,0,3.04-2.47,5.51-5.51,5.51h-5.46c-3.04,0-5.51-2.47-5.51-5.51h3.12c0,1.32,1.07,2.39,2.39,2.39h5.46c1.32,0,2.42-1.07,2.42-2.39s-1.1-2.39-2.42-2.39h-6.28c-1.27,0-2.42-.5-3.26-1.32-.22-.22-.42-.47-.6-.75-.52-.75-.82-1.67-.82-2.67v-.1c0-2.59,2.09-4.71,4.68-4.71h7.08c2.59,0,4.71,2.12,4.71,4.71v.1l-3.11.02Z"/>
</svg>